<svg version="1" xmlns="http://www.w3.org/2000/svg" width="933.333" height="933.333" viewBox="0 0 700.000000 700.000000"><path d="M337.6 2.6c-3.4 1.2-9.7 3.8-14.1 5.9-4.4 2-10 4.6-12.5 5.7-2.5 1.1-7.8 3.6-11.8 5.4-4.1 1.9-7.5 3.4-7.7 3.4-.2 0-4.6 2-9.7 4.4-8.8 4.1-13.5 6.3-23.8 10.8-2.5 1.1-6.7 3.1-9.5 4.3-2.7 1.3-22.3 10.2-43.5 19.8-21.2 9.6-40.5 18.4-43 19.5-2.5 1.1-7.2 3.3-10.5 4.7-5.7 2.6-33 15-43.2 19.7-2.7 1.1-9 4.1-14.2 6.5-5.1 2.3-9.5 4.3-9.7 4.3-.2 0-3.7 1.5-7.7 3.4-3.9 1.9-18.9 8.7-33.2 15.1-14.3 6.4-28 13-30.5 14.7C4.1 156.1-.1 165 .5 176.6c.6 11.8 6.5 20.9 16.8 25.8 6.4 3 7.1 3.3 55.2 25.1 21.5 9.7 41 18.6 43.5 19.7 2.5 1.1 21.8 9.9 43 19.5s41.8 19 45.8 20.9c4.1 1.9 7.5 3.4 7.7 3.4.2 0 3.6 1.5 7.7 3.4 4 1.8 24.9 11.3 46.3 21.1 52.3 23.7 56.9 25.8 64.8 29.5 13.2 6.1 24.3 6.3 35.7.6 2.7-1.4 5-2.3 5-1.9 0 .3.6.1 1.3-.5.6-.5 8.4-4.2 17.2-8.2 8.8-4 18.9-8.5 22.5-10.2 3.6-1.6 22.9-10.4 43-19.5s40.3-18.3 44.8-20.4c4.6-2.2 8.6-3.9 8.8-3.9.2 0 5.2-2.3 11-5 5.8-2.8 10.8-5 10.9-5 .2 0 4.7-2 10-4.5s11.1-5.1 12.8-5.9c12.2-5.1 130.8-59.4 133.2-60.9 7.2-4.7 12.9-16.5 12.4-25.9-.5-8.3-4.5-17-10.4-22.1-2.5-2.2-10.4-6-36.5-17.7-11.3-5.1-23.9-10.8-28-12.7-4.1-1.9-19-8.7-33-15-14-6.3-28-12.6-31-14-5.7-2.7-14.3-6.6-22-10-23.4-10.6-32.1-14.6-46.8-21.4-4.6-2.2-8.5-3.9-8.7-3.9-.2 0-3.9-1.6-8.2-3.6-4.3-2-11.1-5.2-15.1-7-4.1-1.9-7.5-3.4-7.7-3.4-.2 0-4.3-1.9-9.2-4.1-4.8-2.3-12.6-5.8-17.3-7.9-4.7-2.1-11.5-5.2-15.2-6.9C375.3 7.8 362.1 2 357.3 1c-6.4-1.5-12.6-1-19.7 1.6z"/><path d="M90.5 289.5c-5.9 2.9-12.9 6-50.3 23C14.8 324 11.5 325.8 8 329.8c-10.4 11.7-10.3 30.8.3 41.6 2.6 2.8 16 10.6 18.1 10.6.2 0 4.2 1.7 8.8 3.9 4.5 2.1 18 8.2 29.8 13.6 11.8 5.3 25.2 11.5 29.8 13.6 4.6 2.1 8.5 3.9 8.7 3.9.1 0 4.1 1.7 8.7 3.9 4.5 2.1 12.4 5.6 17.3 7.9 5 2.2 11.9 5.3 15.5 7 5.6 2.5 13.9 6.3 42 18.9 3 1.4 7.8 3.5 10.5 4.8 12.5 5.8 20.6 9.5 20.9 9.5.2 0 4.2 1.7 8.8 3.9 4.5 2.1 22.7 10.4 40.3 18.4 17.6 7.9 34.5 15.6 37.5 17 36.7 16.8 36.8 16.8 45.5 16.6 7-.2 11.3-1.4 22.5-6.6 5.1-2.4 44-20 54-24.5 2.5-1.1 7.9-3.6 12-5.5s20.8-9.5 37-16.8c16.2-7.3 32.4-14.6 36-16.3 3.6-1.6 16.2-7.4 28-12.7 11.8-5.3 24-10.8 27-12.2 3-1.4 15.4-7 27.5-12.5s23.4-10.6 25-11.3c1.7-.8 15.6-7.1 31-14 36.9-16.7 36.3-16.4 40.8-20.9 5.9-5.8 8.1-11.6 8.2-21.1 0-6.8-.4-8.9-2.8-13.7-5-10.1-4.5-9.9-66.7-37.8-12.4-5.5-23.3-10.5-24.3-11.1-1.9-1-.7-1.5-36.2 14.6-3.3 1.5-15.2 6.9-26.5 12s-23.2 10.5-26.5 12c-3.3 1.5-8.7 3.9-12 5.5-3.3 1.5-15.2 6.9-26.5 12s-23.9 10.8-28 12.7c-4.1 1.9-10 4.5-13 5.8-3 1.3-9.8 4.3-15 6.8-5.2 2.4-11.5 5.3-14 6.4-2.5 1.2-6.7 3.1-9.5 4.3-20.6 9.2-25.6 11.1-32.3 12.5-7.8 1.6-21.3 2.1-27.9 1-6.9-1.2-17-4.5-25-8.1-4.3-2-9.6-4.4-11.8-5.4-54.7-24.8-75.3-34.1-96-43.5-13.7-6.2-28.1-12.7-32-14.5-3.8-1.8-16-7.3-27-12.2-11-5-22.9-10.4-26.5-12-14.4-6.6-23.8-10.8-24.1-10.7-.2 0-2.6 1.1-5.4 2.4z"/><path d="M85 466.9c-5.8 2.6-23.3 10.5-39 17.6-15.7 7.1-30.6 14.2-33.1 15.8C4.3 505.9-.6 516.6.4 527.8c1.2 12.3 7.2 20.3 19.6 25.9 8.5 3.9 13.9 6.4 22.5 10.3 3.3 1.5 8 3.7 10.5 4.8 2.5 1.1 14.4 6.5 26.5 12s46.1 20.9 75.5 34.2c29.4 13.3 57.3 26 61.8 28.1 4.6 2.2 8.6 3.9 8.8 3.9.2 0 3.6 1.5 7.6 3.4 14.7 6.8 20.7 9.5 35.1 16 8 3.6 18.5 8.4 23.3 10.6 4.7 2.2 8.8 4 9 4 .4 0 5 2.1 21.3 9.6 15.8 7.4 19.5 8.7 26.3 9 9.1.4 10.6 0 31.3-9.6 3.3-1.5 15.2-6.9 26.5-12s23.4-10.6 27-12.2c3.6-1.6 18.4-8.4 33-15 14.6-6.6 28.8-13 31.5-14.3 3.9-1.7 70.9-32.1 106.5-48.2 3-1.4 10.5-4.8 16.5-7.5 6.1-2.8 13.7-6.3 17-7.8 54.5-24.5 54.7-24.6 59.6-34.8 3.2-6.7 3.2-19.6 0-26.4-3.1-6.4-9.3-11.9-18.5-16.2-4.3-2-7.9-3.6-8.2-3.6-.2 0-3.6-1.5-7.6-3.4-10.2-4.8-50.5-23-55.1-25-4.1-1.7-4.6-1.6-14.5 3-6.3 2.9-26 11.9-33.7 15.4-2.7 1.2-7.9 3.6-11.5 5.2-3.6 1.7-10.8 4.9-16 7.3-5.2 2.4-12.4 5.6-16 7.2-3.6 1.7-10.3 4.7-15 6.8-7.7 3.4-14.2 6.4-28.5 13-2.7 1.3-11.5 5.2-19.5 8.8-8 3.6-18.3 8.3-23 10.4-23.6 11.1-54.1 24.3-59 25.7-7.7 2.1-12.3 2.7-21.5 2.7-17.2-.1-17.3-.1-86-31.3-12.1-5.5-24.5-11.1-27.5-12.5-3-1.4-10.2-4.7-16-7.3-5.8-2.6-22-10-36-16.3-14-6.3-28.4-12.8-32-14.5-8.2-3.8-15.8-7.2-28.5-12.9-5.5-2.5-13.1-6-17-7.8-3.8-1.8-7.9-3.5-9-3.8-1.2-.4-6 1.2-12.5 4.2z"/></svg>